<svg height="1024" preserveAspectRatio="none" viewBox="0 0 1024 1024" width="1024" xmlns="http://www.w3.org/2000/svg"><path d="m969.6 351.25q-8.6-20.85-19.4-40.85-6.1-11.35-12.9-22.4-29.35-47.55-71.55-89.8-138.25-138.25-333.8-138.25-195.5 0-333.75 138.25-138.25 138.25-138.25 333.75 0 195.55 138.25 333.8 138.25 138.2 333.75 138.2 195.55 0 333.8-138.2 76.15-76.2 110.35-169.75 27.85-76.25 27.85-164.05 0-67.35-16.4-127.95-1.85-6.85-3.9-13.6-6.15-19.95-14.05-39.15z" fill-opacity=".098039"/><path d="m969.7 392q-1.75-6.85-3.65-13.6-1.52421875-5.28554687-3.2-10.55-2.47128906-7.946875-5.25-15.8-9.75-27.55-23.15-53.65-5.8-11.35-12.3-22.4-30.65-52-76.35-97.75-109-109-253.65-132.05-24.5-3.9-50.05-5.35-14.9-.85-30.1-.85-14.1 0-27.9.75-177.55 9.2-305.85 137.5-138.25 138.25-138.25 333.75 0 195.55 138.25 333.8 84.79003906 84.75703125 191.1 117.55 54.53808594 16.81308594 114.75 19.95.2 0 .4 0 12.15.6 24.5.7 1.5 0 3 0 15.25 0 30.1-.8 3.5-.2 6.95-.45 30.05-2.15 58.7-7.7 11.8-2.3 23.4-5.15 120.6-30.05 214.65-124.1 72.9-72.95 107.35-161.8 27.75-71.6 30.55-153.5.3-9.2.3-18.5 0-1 0-2 0-.5 0-1-.35-61.3-14.3-117z" fill="#dd4130"/><path d="m953.15 684q5.34082031-13.78007813 9.75-27.95l-328.6-328.6-322.3 118.55-243.45-99.9q-28.55 77.0515625-28.55 165.9 0 53.87050781 10.5 103.4l358.1 358.1q36.57949219 7.77226563 75.5 9.8.2 0 .4 0 12.15.6 24.5.7 1.5 0 3 0 15.25 0 30.1-.8 3.5-.2 6.95-.45 30.05-2.15 58.7-7.7 11.8-2.3 23.4-5.15 120.6-30.05 214.65-124.1 72.9-72.95 107.35-161.8z" fill-opacity=".2"/><path d="m40.05 487.05q-.05.7-.05 1.35l267.25 108.55q11.3 4.6 22.6 0l285.15-115.8q11.5-4.7 16.35-16.15 4.8-11.5.15-22.95-4.7-11.45-16.15-16.3-11.5-4.9-22.95-.2l-273.85 111.2-271.9-110.4q-2 11.05-3.4 22.4-.4 2.85-.7 5.75-1.75 16.05-2.5 32.55m591.45-161.9q-4.7-11.45-16.15-16.3-11.5-4.9-22.95-.2l-273.85 111.2-240.75-97.75q-.05.05-.05.1-2.2 5-4.25 10-2.2 5.35-4.2 10.7-1.1 2.8-2.15 5.7-5.35 14.6-9.6 29.65-.05.2-.1.35l249.8 101.45q11.3 4.6 22.6 0l285.15-115.8q11.5-4.7 16.35-16.15 4.8-11.5.15-22.95m-586.25 217.3q-2.2-.9-4.45-1.45.8 14.9 2.4 29.45 2.1 18.15 5.45 35.8.25 1.3.5 2.55l258.65 105.05q11.3 4.6 22.6 0l285.15-115.8q11.5-4.7 16.35-16.15 4.8-11.5.15-22.95-4.7-11.45-16.15-16.3-11.5-4.9-22.95-.2l-273.85 111.2z" fill="#fff"/></svg>